TITLE ""
FILE "P1Q_j_1628-1641.mp3" MP3
  TRACK 01 AUDIO
    TITLE "P1Q_j_1628-1641_01"
    INDEX 01 00:00:00
  TRACK 02 AUDIO
    TITLE "P1Q_j_1628-1641_02"
    INDEX 01 00:00:10
  TRACK 03 AUDIO
    TITLE "P1Q_j_1628-1641_03"
    INDEX 01 00:01:35
  TRACK 04 AUDIO
    TITLE "P1Q_j_1628-1641_04"
    INDEX 01 00:01:55
  TRACK 05 AUDIO
    TITLE "P1Q_j_1628-1641_05"
    INDEX 01 00:05:68
  TRACK 06 AUDIO
    TITLE "P1Q_j_1628-1641_06"
    INDEX 01 00:06:15
  TRACK 07 AUDIO
    TITLE "P1Q_j_1628-1641_07"
    INDEX 01 00:10:54
  TRACK 08 AUDIO
    TITLE "P1Q_j_1628-1641_08"
    INDEX 01 00:11:24
  TRACK 09 AUDIO
    TITLE "P1Q_j_1628-1641_09"
    INDEX 01 00:12:41
  TRACK 10 AUDIO
    TITLE "P1Q_j_1628-1641_10"
    INDEX 01 00:12:62
  TRACK 11 AUDIO
    TITLE "P1Q_j_1628-1641_11"
    INDEX 01 00:16:60
  TRACK 12 AUDIO
    TITLE "P1Q_j_1628-1641_12"
    INDEX 01 00:17:05
  TRACK 13 AUDIO
    TITLE "P1Q_j_1628-1641_13"
    INDEX 01 00:21:36
  TRACK 14 AUDIO
    TITLE "P1Q_j_1628-1641_14"
    INDEX 01 00:22:06
  TRACK 15 AUDIO
    TITLE "P1Q_j_1628-1641_15"
    INDEX 01 00:23:33
  TRACK 16 AUDIO
    TITLE "P1Q_j_1628-1641_16"
    INDEX 01 00:23:54
  TRACK 17 AUDIO
    TITLE "P1Q_j_1628-1641_17"
    INDEX 01 00:27:31
  TRACK 18 AUDIO
    TITLE "P1Q_j_1628-1641_18"
    INDEX 01 00:27:50
  TRACK 19 AUDIO
    TITLE "P1Q_j_1628-1641_19"
    INDEX 01 00:32:02
  TRACK 20 AUDIO
    TITLE "P1Q_j_1628-1641_20"
    INDEX 01 00:32:49
  TRACK 21 AUDIO
    TITLE "P1Q_j_1628-1641_21"
    INDEX 01 00:34:09
  TRACK 22 AUDIO
    TITLE "P1Q_j_1628-1641_22"
    INDEX 01 00:34:29
  TRACK 23 AUDIO
    TITLE "P1Q_j_1628-1641_23"
    INDEX 01 00:37:25
  TRACK 24 AUDIO
    TITLE "P1Q_j_1628-1641_24"
    INDEX 01 00:37:45
  TRACK 25 AUDIO
    TITLE "P1Q_j_1628-1641_25"
    INDEX 01 00:42:03
  TRACK 26 AUDIO
    TITLE "P1Q_j_1628-1641_26"
    INDEX 01 00:42:48
  TRACK 27 AUDIO
    TITLE "P1Q_j_1628-1641_27"
    INDEX 01 00:44:04
  TRACK 28 AUDIO
    TITLE "P1Q_j_1628-1641_28"
    INDEX 01 00:44:23
  TRACK 29 AUDIO
    TITLE "P1Q_j_1628-1641_29"
    INDEX 01 00:48:13
  TRACK 30 AUDIO
    TITLE "P1Q_j_1628-1641_30"
    INDEX 01 00:48:31
  TRACK 31 AUDIO
    TITLE "P1Q_j_1628-1641_31"
    INDEX 01 00:52:19
  TRACK 32 AUDIO
    TITLE "P1Q_j_1628-1641_32"
    INDEX 01 00:52:62
  TRACK 33 AUDIO
    TITLE "P1Q_j_1628-1641_33"
    INDEX 01 00:54:14
  TRACK 34 AUDIO
    TITLE "P1Q_j_1628-1641_34"
    INDEX 01 00:54:33
  TRACK 35 AUDIO
    TITLE "P1Q_j_1628-1641_35"
    INDEX 01 00:57:14
  TRACK 36 AUDIO
    TITLE "P1Q_j_1628-1641_36"
    INDEX 01 00:57:34
  TRACK 37 AUDIO
    TITLE "P1Q_j_1628-1641_37"
    INDEX 01 01:00:69
  TRACK 38 AUDIO
    TITLE "P1Q_j_1628-1641_38"
    INDEX 01 01:01:39
  TRACK 39 AUDIO
    TITLE "P1Q_j_1628-1641_39"
    INDEX 01 01:02:66
  TRACK 40 AUDIO
    TITLE "P1Q_j_1628-1641_40"
    INDEX 01 01:03:11
  TRACK 41 AUDIO
    TITLE "P1Q_j_1628-1641_41"
    INDEX 01 01:08:10
  TRACK 42 AUDIO
    TITLE "P1Q_j_1628-1641_42"
    INDEX 01 01:08:30
  TRACK 43 AUDIO
    TITLE "P1Q_j_1628-1641_43"
    INDEX 01 01:13:60
  TRACK 44 AUDIO
    TITLE "P1Q_j_1628-1641_44"
    INDEX 01 01:14:30
  TRACK 45 AUDIO
    TITLE "P1Q_j_1628-1641_45"
    INDEX 01 01:15:75
  TRACK 46 AUDIO
    TITLE "P1Q_j_1628-1641_46"
    INDEX 01 01:16:19
  TRACK 47 AUDIO
    TITLE "P1Q_j_1628-1641_47"
    INDEX 01 01:18:30
  TRACK 48 AUDIO
    TITLE "P1Q_j_1628-1641_48"
    INDEX 01 01:18:50
  TRACK 49 AUDIO
    TITLE "P1Q_j_1628-1641_49"
    INDEX 01 01:22:18
  TRACK 50 AUDIO
    TITLE "P1Q_j_1628-1641_50"
    INDEX 01 01:22:63
  TRACK 51 AUDIO
    TITLE "P1Q_j_1628-1641_51"
    INDEX 01 01:24:21
  TRACK 52 AUDIO
    TITLE "P1Q_j_1628-1641_52"
    INDEX 01 01:24:42
  TRACK 53 AUDIO
    TITLE "P1Q_j_1628-1641_53"
    INDEX 01 01:28:68
  TRACK 54 AUDIO
    TITLE "P1Q_j_1628-1641_54"
    INDEX 01 01:29:12
  TRACK 55 AUDIO
    TITLE "P1Q_j_1628-1641_55"
    INDEX 01 01:33:20
  TRACK 56 AUDIO
    TITLE "P1Q_j_1628-1641_56"
    INDEX 01 01:33:65
  TRACK 57 AUDIO
    TITLE "P1Q_j_1628-1641_57"
    INDEX 01 01:35:42
  TRACK 58 AUDIO
    TITLE "P1Q_j_1628-1641_58"
    INDEX 01 01:35:62
  TRACK 59 AUDIO
    TITLE "P1Q_j_1628-1641_59"
    INDEX 01 01:39:32
  TRACK 60 AUDIO
    TITLE "P1Q_j_1628-1641_60"
    INDEX 01 01:39:52
  TRACK 61 AUDIO
    TITLE "P1Q_j_1628-1641_61"
    INDEX 01 01:44:25
  TRACK 62 AUDIO
    TITLE "P1Q_j_1628-1641_62"
    INDEX 01 01:44:71
  TRACK 63 AUDIO
    TITLE "P1Q_j_1628-1641_63"
    INDEX 01 01:46:24
  TRACK 64 AUDIO
    TITLE "P1Q_j_1628-1641_64"
    INDEX 01 01:46:44
  TRACK 65 AUDIO
    TITLE "P1Q_j_1628-1641_65"
    INDEX 01 01:50:61
  TRACK 66 AUDIO
    TITLE "P1Q_j_1628-1641_66"
    INDEX 01 01:51:06
  TRACK 67 AUDIO
    TITLE "P1Q_j_1628-1641_67"
    INDEX 01 01:54:32
  TRACK 68 AUDIO
    TITLE "P1Q_j_1628-1641_68"
    INDEX 01 01:55:02
  TRACK 69 AUDIO
    TITLE "P1Q_j_1628-1641_69"
    INDEX 01 01:56:29
  TRACK 70 AUDIO
    TITLE "P1Q_j_1628-1641_70"
    INDEX 01 01:56:50
  TRACK 71 AUDIO
    TITLE "P1Q_j_1628-1641_71"
    INDEX 01 01:58:59
  TRACK 72 AUDIO
    TITLE "P1Q_j_1628-1641_72"
    INDEX 01 01:59:04
  TRACK 73 AUDIO
    TITLE "P1Q_j_1628-1641_73"
    INDEX 01 02:02:10
  TRACK 74 AUDIO
    TITLE "P1Q_j_1628-1641_74"
    INDEX 01 02:02:57
  TRACK 75 AUDIO
    TITLE "P1Q_j_1628-1641_75"
    INDEX 01 02:04:12
  TRACK 76 AUDIO
    TITLE "P1Q_j_1628-1641_76"
    INDEX 01 02:04:32
  TRACK 77 AUDIO
    TITLE "P1Q_j_1628-1641_77"
    INDEX 01 02:07:52
  TRACK 78 AUDIO
    TITLE "P1Q_j_1628-1641_78"
    INDEX 01 02:07:72
  TRACK 79 AUDIO
    TITLE "P1Q_j_1628-1641_79"
    INDEX 01 02:11:28
  TRACK 80 AUDIO
    TITLE "P1Q_j_1628-1641_80"
    INDEX 01 02:11:75
  TRACK 81 AUDIO
    TITLE "P1Q_j_1628-1641_81"
    INDEX 01 02:13:41
  TRACK 82 AUDIO
    TITLE "P1Q_j_1628-1641_82"
    INDEX 01 02:13:60
  TRACK 83 AUDIO
    TITLE "P1Q_j_1628-1641_83"
    INDEX 01 02:17:27
  TRACK 84 AUDIO
    TITLE "P1Q_j_1628-1641_84"
    INDEX 01 02:17:45
  TRACK 85 AUDIO
    TITLE "P1Q_j_1628-1641_85"
    INDEX 01 02:22:42
